#tb 0: 1/25
0,          1,          1,        1,   622080, 870e846b6b001d3e34fa87df96297e28
0,          2,          2,        1,   622080, de1a3dd9fcc32086ecdffd4591a8defa
0,          3,          3,        1,   622080, 59f5f16d4224e98e09f22818cc9227e0
0,          4,          4,        1,   622080, 9744609bcf95107bdbe6a9e21dc22b9d
0,          5,          5,        1,   622080, 6dc50ad4b5821cc20f418f2eb273a45c
0,          6,          6,        1,   622080, 57012fc77d853c17591319cc528ebd93
0,          7,          7,        1,   622080, fd0068955ce1583f21bb888ad3b6952a
0,          8,          8,        1,   622080, 58b7bcb056fac5d34ec4197fe10723a7
0,          9,          9,        1,   622080, 064311346d0ea2753f01f18f13188c27
0,         10,         10,        1,   622080, 21995e49367aee152a11992f48317bbe
0,         11,         11,        1,   622080, 288c2cd0ac0a3b74d23da6ba30111d55
0,         12,         12,        1,   622080, 88db7bf240fd6ee5ef89c34522de76e8
0,         13,         13,        1,   622080, 8e2d38686bbf768e812005decc37cb90
0,         14,         14,        1,   622080, 3a7d3c036ecaa669d26660937a8b723e
0,         15,         15,        1,   622080, 6c8b8e847c544125213c9f49d9607d98
0,         16,         16,        1,   622080, 16b56117f1b327862f78421116dfe52e
0,         17,         17,        1,   622080, a7ce423456a59bdb4d5921aff1a27691
0,         18,         18,        1,   622080, 881c9561c9ab66a7659145173f8e8cda
0,         19,         19,        1,   622080, 7413961f9accd1d32e116592a6448e9b
0,         20,         20,        1,   622080, c66409494fd1714e6236596f476cece6
